<svg width="88" height="40" viewBox="0 0 88 40" fill="none" xmlns="http://www.w3.org/2000/svg">
<path d="M9.64645 20.3536C9.45118 20.1583 9.45118 19.8417 9.64645 19.6464L12.8284 16.4645C13.0237 16.2692 13.3403 16.2692 13.5355 16.4645C13.7308 16.6597 13.7308 16.9763 13.5355 17.1716L10.7071 20L13.5355 22.8284C13.7308 23.0237 13.7308 23.3403 13.5355 23.5355C13.3403 23.7308 13.0237 23.7308 12.8284 23.5355L9.64645 20.3536ZM34 20V20.5H10V20V19.5H34V20Z" fill="#4D4A99"/>
<path d="M78.3536 20.3536C78.5488 20.1583 78.5488 19.8417 78.3536 19.6464L75.1716 16.4645C74.9763 16.2692 74.6597 16.2692 74.4645 16.4645C74.2692 16.6597 74.2692 16.9763 74.4645 17.1716L77.2929 20L74.4645 22.8284C74.2692 23.0237 74.2692 23.3403 74.4645 23.5355C74.6597 23.7308 74.9763 23.7308 75.1716 23.5355L78.3536 20.3536ZM54 20V20.5H78V20V19.5H54V20Z" fill="#4D4A99"/>
</svg>
